<svg id="svg" xmlns="http://www.w3.org/2000/svg" xmlns:xlink="http://www.w3.org/1999/xlink" width="400" height="200" viewBox="0, 0, 400,200"><g id="svgg"><path id="path0" d="M95.166 0.059 C 94.897 0.079,93.953 0.141,93.066 0.198 C 68.703 1.767,45.522 12.526,28.271 30.273 C 11.639 47.384,2.095 68.714,0.176 93.066 C 0.003 95.259,0.003 104.741,0.176 106.934 C 4.058 156.186,41.369 194.642,90.039 199.554 C 93.471 199.901,94.739 199.951,100.000 199.951 C 106.021 199.951,107.976 199.840,112.939 199.214 C 133.644 196.605,154.129 186.849,168.857 172.583 C 169.537 171.925,170.153 171.387,170.227 171.387 C 170.301 171.387,182.413 159.335,197.143 144.605 L 223.926 117.822 250.195 144.092 L 276.465 170.361 285.327 161.499 L 294.189 152.637 267.920 126.367 L 241.651 100.098 267.969 73.779 L 294.287 47.461 285.425 38.599 L 276.563 29.736 250.245 56.054 L 223.928 82.371 196.412 54.876 C 181.279 39.754,168.259 26.811,167.480 26.114 C 150.069 10.523,130.600 2.159,107.129 0.187 C 105.966 0.089,96.192 -0.015,95.166 0.059 M104.639 25.202 C 120.083 26.122,134.824 31.846,147.021 41.659 C 150.782 44.685,151.825 45.704,180.176 74.064 L 206.201 100.098 179.700 126.599 C 165.125 141.174,153.146 153.094,153.080 153.088 C 153.014 153.081,152.218 153.765,151.309 154.606 C 136.353 168.464,117.699 175.508,97.583 174.893 C 60.208 173.751,29.198 144.853,25.443 107.666 C 20.789 61.577,58.369 22.446,104.639 25.202 M98.877 50.112 C 87.121 51.042,76.251 56.052,67.725 64.470 L 65.869 66.302 74.778 75.214 L 83.687 84.126 84.192 83.543 C 91.473 75.134,103.869 72.670,113.921 77.633 C 129.242 85.196,132.624 105.594,120.552 117.625 C 110.362 127.780,93.529 127.240,84.192 116.457 L 83.687 115.874 74.781 124.780 L 65.875 133.685 66.702 134.543 C 88.069 156.697,123.636 154.855,142.534 130.615 C 153.539 116.500,156.061 96.932,149.004 80.424 C 140.517 60.571,120.405 48.410,98.877 50.112 M297.129 56.798 C 287.159 58.598,283.402 71.160,290.735 78.174 C 298.720 85.811,311.914 80.183,311.914 69.141 C 311.914 61.285,304.865 55.400,297.129 56.798 M297.168 97.457 C 283.928 110.709,273.083 121.615,273.068 121.692 C 273.038 121.848,280.084 128.906,280.270 128.906 C 280.334 128.906,280.588 129.071,280.834 129.272 C 281.080 129.474,281.285 129.618,281.290 129.593 C 281.295 129.568,281.504 129.688,281.756 129.861 C 282.007 130.034,282.242 130.176,282.278 130.176 C 282.314 130.176,282.471 130.267,282.627 130.378 C 282.783 130.489,282.910 130.558,282.910 130.531 C 282.910 130.505,283.196 130.632,283.545 130.814 C 283.894 130.996,284.180 131.123,284.180 131.096 C 284.180 131.070,284.279 131.102,284.399 131.169 C 284.520 131.235,284.676 131.299,284.746 131.311 C 284.816 131.322,284.986 131.406,285.125 131.496 C 285.293 131.606,285.349 131.617,285.294 131.529 C 285.242 131.445,285.309 131.460,285.477 131.570 C 285.623 131.665,285.742 131.718,285.742 131.688 C 285.742 131.379,286.151 131.973,286.330 132.540 C 286.694 133.697,287.523 135.436,288.097 136.246 C 288.199 136.388,288.281 136.537,288.281 136.577 C 288.281 136.617,288.435 136.838,288.623 137.067 C 288.811 137.296,288.965 137.537,288.965 137.602 C 288.965 137.752,292.471 141.253,292.547 141.177 C 292.578 141.146,292.789 141.273,293.016 141.459 C 293.243 141.645,293.462 141.797,293.503 141.797 C 293.544 141.797,293.792 141.954,294.054 142.147 C 294.317 142.340,294.531 142.468,294.531 142.433 C 294.531 142.398,294.652 142.452,294.800 142.552 C 295.024 142.704,295.519 142.960,295.703 143.019 C 295.730 143.028,295.967 143.135,296.230 143.257 C 296.492 143.379,296.756 143.487,296.816 143.497 C 296.875 143.507,297.026 143.571,297.150 143.639 C 297.274 143.708,297.461 143.783,297.565 143.806 C 297.669 143.829,297.842 143.870,297.949 143.896 C 298.057 143.923,298.233 143.965,298.340 143.989 C 298.448 144.012,298.580 144.059,298.633 144.092 C 298.686 144.125,298.829 144.173,298.950 144.200 C 299.391 144.297,299.565 144.335,299.805 144.389 C 300.131 144.463,300.333 144.494,301.025 144.581 C 302.810 144.803,304.821 144.765,306.396 144.479 C 306.504 144.459,306.746 144.415,306.934 144.379 C 307.122 144.344,307.374 144.309,307.495 144.301 C 307.616 144.293,307.715 144.247,307.715 144.198 C 307.715 144.148,307.739 144.132,307.769 144.162 C 307.798 144.191,308.035 144.135,308.294 144.036 C 308.554 143.938,308.786 143.877,308.811 143.902 C 308.878 143.969,311.603 142.806,311.769 142.639 C 311.848 142.560,312.066 142.445,312.255 142.383 C 312.443 142.321,312.598 142.235,312.598 142.192 C 312.598 142.149,312.740 142.056,312.915 141.985 C 313.090 141.915,313.256 141.823,313.284 141.783 C 313.313 141.742,313.516 141.585,313.736 141.435 C 313.956 141.285,314.282 141.052,314.459 140.918 C 314.837 140.631,317.037 138.440,317.361 138.028 C 317.484 137.872,317.690 137.612,317.819 137.451 C 317.949 137.290,318.046 137.133,318.036 137.102 C 318.026 137.072,318.083 136.974,318.164 136.886 C 318.415 136.611,318.555 136.436,318.555 136.395 C 318.555 136.374,318.764 135.987,319.020 135.536 C 319.276 135.086,319.536 134.607,319.598 134.473 C 320.047 133.502,320.215 133.103,320.215 133.004 C 320.215 132.942,320.275 132.752,320.349 132.583 C 320.525 132.179,320.764 131.286,321.061 129.932 C 321.344 128.644,321.313 124.717,321.010 123.291 C 320.539 121.075,319.576 118.675,318.498 117.034 C 318.261 116.673,318.066 116.357,318.066 116.333 C 318.066 116.256,316.831 114.811,316.467 114.461 L 316.118 114.127 327.495 102.749 C 333.753 96.491,338.923 91.310,338.985 91.236 C 339.086 91.114,321.470 73.309,321.289 73.351 C 321.262 73.357,310.408 84.205,297.168 97.457 M264.136 86.694 C 256.844 93.986,250.879 99.979,250.879 100.012 C 250.879 100.096,268.453 117.676,268.537 117.676 C 268.644 117.676,295.117 91.172,295.117 91.064 C 295.117 90.936,277.618 73.438,277.490 73.438 C 277.436 73.438,271.427 79.403,264.136 86.694 M48.593 87.657 C 38.636 89.455,34.882 101.955,42.180 109.013 C 50.115 116.688,63.379 111.048,63.379 100.000 C 63.379 92.136,56.339 86.258,48.593 87.657 " stroke="none" fill="#000000" fill-rule="evenodd"></path></g></svg>